<svg xmlns="http://www.w3.org/2000/svg" width="151.031" height="57.469" viewBox="0 0 151.031 57.469">
  <defs>
    <style>
      .cls-1 {
        fill: #e24141;
        fill-rule: evenodd;
      }
    </style>
  </defs>
  <path id="love-merge-logo.svg" class="cls-1" d="M53.945,75.477L55.63,75.5l10.016-.164,1.825-.023q1.38,0,1.381.832a0.731,0.731,0,0,1-.749.808q-0.164.024-1.077,0.048H39.6l0.07-8.906,0.047-5.461,0.047-6.187L39.726,52.48a31.656,31.656,0,0,0-2.847-2.091c-5.172-3.358-12.941-6.5-12.882-14.9C24.1,20.2,40.294,17.124,45.99,30.3,51.424,17.65,67.9,20.07,68,35.4c0.059,8.4-7.805,11.333-12.882,14.9-0.412.289-.815,0.591-1.214,0.9l-0.078,6.515,0.023,5.7ZM80.078,45.641a16.521,16.521,0,0,0-7.664,7.148A16.8,16.8,0,0,0,71.641,67.6,17.264,17.264,0,0,0,87.273,77.961a16.877,16.877,0,0,0,7.875-1.945,16.793,16.793,0,0,0,9.141-14.836,17.138,17.138,0,0,0-2.133-8.414,16.441,16.441,0,0,0-7.734-7.148,17.048,17.048,0,0,0-14.344.023h0Zm7.008-.164A16.022,16.022,0,0,1,94,47.023a14.777,14.777,0,0,1,6.8,6.352,15.294,15.294,0,0,1,1.969,7.594,15.732,15.732,0,0,1-1.172,5.977A14.964,14.964,0,0,1,96.2,73.7a15.734,15.734,0,0,1-9.258,2.859,8.773,8.773,0,0,1-1.523-.141L85.4,73.555l-0.117-12.68,0.141-15.258a9.823,9.823,0,0,1,1.664-.141h0Zm34.311-.469H104.969L125,79.461,142.328,48.2q0.375-.68.609-1.055c0.078-.125.157-0.258,0.235-0.4a3.067,3.067,0,0,0,.492-1.266,0.832,0.832,0,0,0-.306-0.645,1.037,1.037,0,0,0-.706-0.27,0.916,0.916,0,0,0-.718.339,6.945,6.945,0,0,0-.788,1.366q-1.849,3.837-4.963,9.594L131.992,63.7Zm49.361,10.35,1.851,0.056q1.548,0,1.547-.927a0.68,0.68,0,0,0-.316-0.665,3.281,3.281,0,0,0-1.3-.166l-1.8.023-8.2.141-2.554-.023,0.093-7.266,11.742,0.141h0.165a0.828,0.828,0,0,0,1.031-.809,0.711,0.711,0,0,0-.539-0.786,12.824,12.824,0,0,0-1.9-.069H145.727l0.187,14.555-0.094,8.391L145.8,75.781,145.773,77H172.4q1.782-.023,1.946-0.046a0.717,0.717,0,0,0,.7-0.786q0-.832-1.383-0.832l-5.625.061-7.945.08L159.93,59.3V57.9q0-1.547.047-2.625Z" transform="translate(-24 -22)"/>
</svg>
