<svg xmlns="http://www.w3.org/2000/svg" width="16" height="18" viewBox="0 0 16 18">
  <defs>
    <style>
      .cls-1 {
        fill: #fff;
        fill-rule: evenodd;
      }
    </style>
  </defs>
  <path id="fa-user.svg" class="cls-1" d="M866.971,418.747a12.026,12.026,0,0,0-.159-1.278,10.158,10.158,0,0,0-.3-1.272,6.136,6.136,0,0,0-.489-1.143,4.14,4.14,0,0,0-.705-0.95,2.961,2.961,0,0,0-.972-0.627,3.333,3.333,0,0,0-1.268-.235,1.384,1.384,0,0,0-.478.252q-0.375.253-.847,0.563a5.308,5.308,0,0,1-1.228.563,4.7,4.7,0,0,1-3.037,0,5.308,5.308,0,0,1-1.228-.563q-0.471-.31-0.847-0.563a1.392,1.392,0,0,0-.477-0.252,3.325,3.325,0,0,0-1.268.235,2.956,2.956,0,0,0-.973.627,4.14,4.14,0,0,0-.7.95,6.2,6.2,0,0,0-.489,1.143,10.337,10.337,0,0,0-.3,1.272,12.026,12.026,0,0,0-.159,1.278q-0.04.592-.04,1.213a2.973,2.973,0,0,0,.83,2.222,3.014,3.014,0,0,0,2.206.815h9.939a3.014,3.014,0,0,0,2.206-.815,2.973,2.973,0,0,0,.83-2.222Q867.011,419.339,866.971,418.747Zm-7.965-13.758a4.143,4.143,0,0,0-3.088,1.319,4.6,4.6,0,0,0,0,6.366,4.273,4.273,0,0,0,6.175,0,4.6,4.6,0,0,0,0-6.366A4.142,4.142,0,0,0,859.006,404.989Z" transform="translate(-851 -405)"/>
</svg>
